# xmcd
#
# Track frame offsets:
#	182
#	14572
#	26472
#	39202
#	51270
#	68177
#	82557
#	94982
#	109150
#	127005
#
# Disc length: 1856 seconds
#
# Revision: 3
# Processed by: cddbd v1.5.2PL0 Copyright (c) Steve Scherf et al.
# Submitted via: audiograbber 1.83.01
#
DISCID=79073e0a
DTITLE=Bobby Vinton - Greatest hits
DYEAR=1990
DGENRE=Oldies
TTITLE0=My melody of love
TTITLE1=Roses are red (my love)
TTITLE2=Blue velvet
TTITLE3=Mr. Lonely
TTITLE4=I've always loved you
TTITLE5=Blue on blue
TTITLE6=Sealed with a kiss
TTITLE7=Are you sincere
TTITLE8=What did you do with your old 45s
TTITLE9=Because of you
EXTD=YEAR: 1990 ID3G: 11
EXTT0=
EXTT1=
EXTT2=
EXTT3=
EXTT4=
EXTT5=
EXTT6=
EXTT7=
EXTT8=
EXTT9=
PLAYORDER=
